<mxfile host="app.diagrams.net" modified="2021-07-12T02:06:40.293Z" agent="5.0 (Windows NT 10.0; WOW64) AppleWebKit/537.36 (KHTML, like Gecko) Chrome/83.0.4103.61 Safari/537.36" etag="UI18W0ZOQyHZnDZXkUlz" version="14.8.5" type="github">
  <diagram id="LP_c_-AWWE6lzqFJ8R8d" name="第 1 页">
    <mxGraphModel dx="1008" dy="553" grid="1" gridSize="10" guides="1" tooltips="1" connect="1" arrows="1" fold="1" page="0" pageScale="1" pageWidth="827" pageHeight="1169" math="0" shadow="0">
      <root>
        <mxCell id="0" />
        <mxCell id="1" parent="0" />
        <mxCell id="nY4fQOfvEfhR7rY-UjDF-3" style="edgeStyle=orthogonalEdgeStyle;rounded=0;orthogonalLoop=1;jettySize=auto;html=1;exitX=1;exitY=0.5;exitDx=0;exitDy=0;fontSize=13;" edge="1" parent="1" source="nY4fQOfvEfhR7rY-UjDF-1" target="nY4fQOfvEfhR7rY-UjDF-2">
          <mxGeometry relative="1" as="geometry" />
        </mxCell>
        <mxCell id="nY4fQOfvEfhR7rY-UjDF-1" value="调用put方法" style="rounded=1;whiteSpace=wrap;html=1;fontSize=15;fontStyle=1;fillColor=#ffe6cc;strokeColor=#d79b00;" vertex="1" parent="1">
          <mxGeometry x="40" y="200" width="120" height="40" as="geometry" />
        </mxCell>
        <mxCell id="nY4fQOfvEfhR7rY-UjDF-5" style="edgeStyle=orthogonalEdgeStyle;rounded=0;orthogonalLoop=1;jettySize=auto;html=1;exitX=1;exitY=0.5;exitDx=0;exitDy=0;fontSize=13;" edge="1" parent="1" source="nY4fQOfvEfhR7rY-UjDF-2" target="nY4fQOfvEfhR7rY-UjDF-4">
          <mxGeometry relative="1" as="geometry" />
        </mxCell>
        <mxCell id="nY4fQOfvEfhR7rY-UjDF-7" value="否" style="edgeLabel;html=1;align=center;verticalAlign=middle;resizable=0;points=[];fontSize=13;fontStyle=1" vertex="1" connectable="0" parent="nY4fQOfvEfhR7rY-UjDF-5">
          <mxGeometry x="-0.2105" relative="1" as="geometry">
            <mxPoint as="offset" />
          </mxGeometry>
        </mxCell>
        <mxCell id="nY4fQOfvEfhR7rY-UjDF-9" style="edgeStyle=orthogonalEdgeStyle;rounded=0;orthogonalLoop=1;jettySize=auto;html=1;exitX=0.5;exitY=1;exitDx=0;exitDy=0;entryX=0.5;entryY=0;entryDx=0;entryDy=0;fontSize=13;" edge="1" parent="1" source="nY4fQOfvEfhR7rY-UjDF-2" target="nY4fQOfvEfhR7rY-UjDF-8">
          <mxGeometry relative="1" as="geometry" />
        </mxCell>
        <mxCell id="nY4fQOfvEfhR7rY-UjDF-10" value="是" style="edgeLabel;html=1;align=center;verticalAlign=middle;resizable=0;points=[];fontSize=13;fontStyle=1" vertex="1" connectable="0" parent="nY4fQOfvEfhR7rY-UjDF-9">
          <mxGeometry x="-0.2514" y="-1" relative="1" as="geometry">
            <mxPoint as="offset" />
          </mxGeometry>
        </mxCell>
        <mxCell id="nY4fQOfvEfhR7rY-UjDF-2" value="判断是否有根节点" style="rhombus;whiteSpace=wrap;html=1;fontSize=13;gradientColor=#b3b3b3;fillColor=#f5f5f5;strokeColor=#666666;fontStyle=1" vertex="1" parent="1">
          <mxGeometry x="240" y="186.25" width="200" height="67.5" as="geometry" />
        </mxCell>
        <mxCell id="nY4fQOfvEfhR7rY-UjDF-4" value="初始化root节点" style="rounded=1;whiteSpace=wrap;html=1;fontSize=13;fontStyle=1;fillColor=#dae8fc;strokeColor=#6c8ebf;gradientColor=#7ea6e0;" vertex="1" parent="1">
          <mxGeometry x="520" y="200" width="200" height="40" as="geometry" />
        </mxCell>
        <mxCell id="nY4fQOfvEfhR7rY-UjDF-13" value="" style="edgeStyle=orthogonalEdgeStyle;rounded=0;orthogonalLoop=1;jettySize=auto;html=1;fontSize=13;" edge="1" parent="1" source="nY4fQOfvEfhR7rY-UjDF-8" target="nY4fQOfvEfhR7rY-UjDF-12">
          <mxGeometry relative="1" as="geometry" />
        </mxCell>
        <mxCell id="nY4fQOfvEfhR7rY-UjDF-8" value="遍历红黑树，比较key" style="rounded=1;whiteSpace=wrap;html=1;fontSize=13;fontStyle=1;fillColor=#dae8fc;strokeColor=#6c8ebf;gradientColor=#7ea6e0;" vertex="1" parent="1">
          <mxGeometry x="240" y="320" width="200" height="40" as="geometry" />
        </mxCell>
        <mxCell id="nY4fQOfvEfhR7rY-UjDF-16" value="" style="edgeStyle=orthogonalEdgeStyle;rounded=0;orthogonalLoop=1;jettySize=auto;html=1;fontSize=13;" edge="1" parent="1" source="nY4fQOfvEfhR7rY-UjDF-12" target="nY4fQOfvEfhR7rY-UjDF-15">
          <mxGeometry relative="1" as="geometry" />
        </mxCell>
        <mxCell id="nY4fQOfvEfhR7rY-UjDF-17" value="是" style="edgeLabel;html=1;align=center;verticalAlign=middle;resizable=0;points=[];fontSize=13;fontStyle=1" vertex="1" connectable="0" parent="nY4fQOfvEfhR7rY-UjDF-16">
          <mxGeometry x="-0.2709" y="-1" relative="1" as="geometry">
            <mxPoint as="offset" />
          </mxGeometry>
        </mxCell>
        <mxCell id="nY4fQOfvEfhR7rY-UjDF-12" value="是否有相同的key" style="rhombus;whiteSpace=wrap;html=1;fontSize=13;gradientColor=#b3b3b3;fillColor=#f5f5f5;strokeColor=#666666;fontStyle=1" vertex="1" parent="1">
          <mxGeometry x="240" y="423.75" width="200" height="67.5" as="geometry" />
        </mxCell>
        <mxCell id="nY4fQOfvEfhR7rY-UjDF-15" value="覆盖该元素的值，return" style="rounded=1;whiteSpace=wrap;html=1;fontSize=13;fontStyle=1;fillColor=#dae8fc;strokeColor=#6c8ebf;gradientColor=#7ea6e0;" vertex="1" parent="1">
          <mxGeometry x="520" y="437.5" width="200" height="40" as="geometry" />
        </mxCell>
      </root>
    </mxGraphModel>
  </diagram>
</mxfile>
